<?xml version="1.0" encoding="utf-8"?>
<!-- Generator: Adobe Illustrator 22.1.0, SVG Export Plug-In . SVG Version: 6.00 Build 0)  -->
<svg version="1.1" id="图层_1" xmlns="http://www.w3.org/2000/svg" xmlns:xlink="http://www.w3.org/1999/xlink" x="0px" y="0px"
	 viewBox="0 0 52.8 64.4" style="enable-background:new 0 0 52.8 64.4;" xml:space="preserve">
<style type="text/css">
	.st0{fill:none;stroke:#E2E2E2;stroke-miterlimit:10;}
	.st1{fill:#E2E2E2;}
	.st2{fill:#F3ECD7;stroke:#DDD7C3;stroke-width:0.44;stroke-miterlimit:10;}
	.st3{fill:#606060;}
	.st4{font-family:'FZLTCXHJW--GB1-0';}
	.st5{font-size:6.55px;}
</style>
<title>8.29数字说</title>
<rect x="0.6" y="0.6" class="st0" width="51.5" height="63.2"/>
<polygon class="st1" points="52.2,63.8 52.2,63.7 0.7,63.7 0.7,0.7 52,0.7 52,63.8 52.2,63.8 52.2,63.7 52.2,63.8 52.3,63.8 
	52.3,0.5 0.5,0.5 0.5,63.9 52.3,63.9 52.3,63.8 "/>
<polygon class="st1" points="16.4,1.1 1.8,1.1 1.8,1.6 1.8,1.7 1.9,1.8 2,1.8 2,1.8 2,1.8 2,1.9 1.9,2 1.9,2 1.8,2.2 1.8,4.5 
	1.8,4.5 1.9,4.5 2.1,4.5 2.2,4.6 2.3,4.7 2.4,4.7 2.6,4.7 2.6,4.7 2.7,4.7 2.7,4.7 2.7,4.8 2.7,4.8 2.6,4.9 2.5,5 2.6,5.1 2.6,5.1 
	2.7,5.1 2.8,5.2 2.9,5.2 3.1,5.4 3.2,5.4 3.2,5.4 3.4,5.3 3.4,5.3 3.5,5.4 3.5,5.5 3.6,5.7 3.7,5.8 3.7,5.8 3.7,5.8 3.9,5.6 
	3.9,5.6 4.1,5.7 4.2,5.7 4.4,5.8 4.7,5.7 5,5.6 5.1,5.7 5.2,5.7 5.3,5.7 5.3,5.7 5.3,5.8 5.5,5.9 5.5,6.1 5.6,6.1 5.7,6 5.7,6 
	5.7,6 5.8,6 5.8,6 5.8,6 5.8,6.1 5.9,6 5.9,6 6,6 6,6 6,6.1 6,6.1 6,6.1 6,6.1 6.2,6.1 6.2,6.1 6.2,6 6.1,6 6.1,6 6.1,5.9 6.1,5.9 
	6.1,5.9 6.1,5.9 6.1,5.9 6.2,5.9 6.2,5.9 6.2,5.8 6.2,5.8 6.2,5.8 6.3,5.8 6.3,5.8 6.3,5.7 6.3,5.7 6.3,5.7 6.3,5.7 6.3,5.7 
	6.3,5.8 6.4,5.7 6.4,5.6 6.4,5.6 6.4,5.7 6.4,5.7 6.4,5.7 6.3,5.8 6.4,5.8 6.5,5.9 6.5,5.9 6.4,6 6.4,6.1 6.3,6.2 6.3,6.2 6.4,6.2 
	6.6,6 6.6,5.9 6.7,5.9 6.7,5.9 6.6,5.9 6.6,5.8 6.7,5.7 6.7,5.7 6.6,5.6 6.6,5.6 6.7,5.6 6.7,5.5 6.8,5.4 6.8,5.4 6.8,5.4 6.7,5.5 
	6.7,5.6 6.7,5.6 6.8,5.6 6.8,5.6 6.7,5.7 6.8,5.7 6.8,5.7 6.8,5.7 6.7,5.8 6.7,5.8 6.7,5.8 6.7,5.8 6.7,5.8 6.8,5.8 6.8,5.7 
	6.8,5.7 6.8,5.6 6.8,5.6 6.9,5.6 6.9,5.7 6.9,5.7 6.9,5.6 6.9,5.6 6.9,5.6 7,5.6 7,5.6 7,5.6 7,5.7 7,5.7 7,5.7 7,5.6 7.1,5.6 
	7.1,5.6 7.1,5.7 7,5.7 7,5.7 7,5.7 7,5.8 7,5.8 7,5.8 7,5.8 7.1,5.8 7.1,5.8 7.1,5.8 7,5.8 7,5.9 7,5.9 6.9,5.9 6.9,5.9 7,5.9 
	7,5.9 6.9,5.9 6.9,5.9 6.9,5.9 6.9,6 6.9,6 6.9,6 7.1,6 7.1,6 7.1,6 7.1,6 7.1,6 7.1,5.9 7.1,5.9 7.1,5.9 7.1,5.9 7.2,5.8 7.2,5.8 
	7.2,5.9 7.2,5.9 7.2,5.8 7.2,5.9 7.2,5.9 7.2,6 7.2,5.9 7.2,5.9 7.3,5.9 7.3,5.8 7.3,5.8 7.3,5.8 7.2,5.8 7.2,5.7 7.3,5.7 7.3,5.8 
	7.4,5.7 7.4,5.7 7.4,5.7 7.3,5.6 7.3,5.5 7.3,5.5 7.3,5.5 7.3,5.5 7.3,5.5 7.3,5.6 7.3,5.6 7.2,5.6 7.2,5.5 7.2,5.6 7.1,5.6 
	7.1,5.5 7.2,5.5 7.2,5.5 7.2,5.4 7.1,5.4 7.2,5.4 7.2,5.4 7.2,5.4 7.3,5.5 7.3,5.5 7.3,5.4 7.4,5.4 7.4,5.4 7.3,5.4 7.3,5.4 
	7.2,5.3 7.2,5.3 7.2,5.2 7.2,5.2 7.2,5.2 7.2,5.2 7.1,5.1 7.1,5 7.1,5 7,5 7,5 7.1,5 7.1,5 7.1,5 7.1,4.9 7.1,4.9 7.1,4.9 7.1,4.8 
	7.2,4.8 7.2,4.8 7.1,4.9 7.1,4.9 7.1,5 7.1,5 7.1,5 7.2,5.1 7.2,5.1 7.2,5 7.2,5 7.2,5 7.3,4.9 7.3,4.9 7.4,4.8 7.4,4.8 7.5,4.8 
	7.5,4.8 7.5,4.8 7.4,4.8 7.4,4.9 7.4,4.9 7.4,4.9 7.4,4.9 7.5,4.9 7.5,4.9 7.4,4.9 7.5,4.9 7.5,4.9 7.5,4.9 7.5,4.9 7.6,4.9 
	7.6,4.9 7.7,4.9 7.6,5 7.6,5 7.6,5.1 7.6,5.1 7.5,5.2 7.4,5.2 7.4,5.3 7.5,5.3 7.5,5.5 7.6,5.5 7.6,5.5 7.6,5.5 7.7,5.4 7.7,5.4 
	7.6,5.3 7.6,5.3 7.6,5.3 7.7,5.3 7.7,5.3 7.7,5.2 7.7,5.1 7.7,5.1 7.7,5.2 7.7,5.3 7.8,5.2 7.8,5.2 7.7,5.3 7.7,5.4 7.7,5.5 
	7.8,5.5 7.8,5.5 7.8,5.5 7.9,5.5 7.9,5.4 7.9,5.4 7.9,5.4 7.9,5.4 7.9,5.4 7.9,5.5 7.9,5.5 7.9,5.6 7.9,5.6 7.9,5.6 8,5.7 8,5.6 
	8,5.6 8,5.6 8,5.7 8,5.7 7.9,5.7 7.9,5.7 7.9,5.7 7.9,5.7 7.9,5.8 8,5.8 8,5.9 8,5.9 8,5.8 8.1,5.8 8.2,5.8 8.2,5.8 8.3,5.8 
	8.3,5.8 8.4,5.8 8.4,5.8 8.4,5.8 8.3,5.7 8.3,5.7 8.3,5.7 8.3,5.6 8.2,5.5 8.2,5.5 8.2,5.5 8.1,5.4 8.1,5.4 8.2,5.4 8.2,5.4 
	8.2,5.4 8.2,5.5 8.2,5.5 8.3,5.5 8.3,5.5 8.3,5.5 8.3,5.4 8.3,5.4 8.3,5.3 8.2,5.3 8.2,5.2 8.1,5.2 8.2,5.2 8.1,5.1 8.1,5.1 
	8.2,5.1 8.2,5.1 8.2,5.2 8.2,5.2 8.3,5.2 8.3,5.2 8.4,5.2 8.3,5.2 8.4,5.3 8.4,5.3 8.4,5.2 8.4,5.2 8.4,5.3 8.4,5.4 8.4,5.4 
	8.5,5.3 8.5,5.3 8.5,5.3 8.5,5.4 8.5,5.4 8.6,5.3 8.6,5.3 8.6,5.4 8.5,5.4 8.5,5.4 8.4,5.4 8.4,5.4 8.4,5.5 8.4,5.5 8.3,5.6 
	8.3,5.6 8.3,5.6 8.4,5.7 8.4,5.7 8.5,5.7 8.5,5.7 8.5,5.8 8.5,5.8 8.6,5.9 8.8,5.9 8.8,5.8 8.8,5.8 8.8,5.8 8.9,5.8 8.9,5.8 9,5.8 
	9,5.7 9,5.7 9,5.8 9,5.8 9,5.9 9,5.9 9,5.9 9,5.8 9,5.8 9,5.9 9.1,5.9 9.1,5.9 9.1,5.8 9.1,5.9 9.2,5.9 9.2,5.9 9.3,5.8 9.3,5.8 
	9.3,5.8 9.3,5.9 9.3,6 9.3,6.1 9.3,6.1 9.2,6.2 9.1,6.3 9.1,6.3 9,6.3 9,6.3 8.9,6.3 8.9,6.4 8.9,6.4 9,6.4 9.1,6.4 9.1,6.5 
	9.3,6.5 9.3,6.5 9.3,6.5 9.3,6.4 9.3,6.4 9.3,6.4 9.3,6.4 9.3,6.5 9.3,6.5 9.5,6.5 9.5,6.4 9.5,6.4 9.5,6.4 9.5,6.3 9.5,6.2 
	9.6,6.2 9.6,6.2 9.6,6.2 9.6,6.3 9.6,6.4 9.8,6.4 9.8,6.4 9.8,6.3 9.9,6.3 9.9,6.3 9.9,6.4 9.9,6.3 10,6.4 10,6.3 10.1,6.3 
	10.1,6.3 10.2,6.3 10.3,6.3 10.3,6.2 10.3,6.2 10.3,6.2 10.3,6.3 10.3,6.3 10.3,6.3 10.3,6.3 10.4,6.3 10.5,6.2 10.6,6.1 10.5,6 
	10.6,6 10.6,5.9 10.6,5.8 10.5,5.8 10.4,5.7 10.3,5.7 10.3,5.7 10.3,5.7 10.3,5.6 10.3,5.6 10.3,5.7 10.4,5.7 10.4,5.7 10.4,5.7 
	10.4,5.7 10.4,5.6 10.4,5.6 10.4,5.6 10.4,5.6 10.6,5.4 10.6,5.4 10.6,5.4 10.6,5.4 10.7,5.3 10.7,5.3 10.7,5.3 10.7,5.4 10.6,5.5 
	10.6,5.5 10.5,5.6 10.6,5.6 10.6,5.7 10.6,5.8 10.6,5.8 10.6,5.8 10.7,5.8 10.7,5.8 10.7,5.8 10.7,5.8 10.7,5.9 10.7,5.9 10.8,5.9 
	10.8,5.9 10.8,5.9 10.7,5.9 10.7,6 10.8,6 10.8,6 10.8,5.9 10.8,5.9 10.9,5.9 10.9,5.8 11,5.8 11,5.8 11,5.9 10.9,5.9 10.9,5.9 
	10.9,6 10.9,6.1 10.9,6.2 10.9,6.2 11,6.2 11,6.3 11.1,6.3 11.1,6.3 11.2,6.3 11.2,6.2 11.2,6.1 11.1,6 11.1,5.9 11.2,5.9 11.2,5.9 
	11.1,5.9 11.2,5.8 11.2,5.8 11.2,5.8 11.2,5.7 11.2,5.6 11.3,5.6 11.3,5.7 11.3,5.7 11.4,5.7 11.5,5.7 11.5,5.7 11.6,5.7 11.6,5.6 
	11.6,5.6 11.6,5.6 11.7,5.6 11.7,5.5 11.7,5.5 11.7,5.5 11.8,5.2 11.8,5.1 11.8,5.1 11.8,5 11.9,5 11.9,5 11.9,5 11.9,5 12,5 
	12.1,5 12.1,5 12.2,5 12.3,4.9 12.4,4.9 12.5,4.9 12.5,4.9 12.6,4.9 12.9,4.9 13.1,4.9 13.2,4.8 13.2,4.8 13.2,4.8 13.2,4.8 
	13.2,4.8 13.2,4.8 13.2,4.7 13.1,4.6 13.1,4.5 13.1,4.2 13.1,4.1 13,4 13,4 13,4 13,4 13.1,4 13.1,4 13.1,4 13.2,4 13.3,3.9 
	13.3,3.9 13.3,3.9 13.4,4 13.5,4.1 13.6,4.1 13.6,4.1 13.6,4 13.6,4 13.7,3.9 13.7,3.9 13.7,3.9 13.8,3.9 13.9,4 13.9,4 13.9,4 
	14,3.9 14,3.8 14,3.8 14,3.8 14.1,3.7 14.3,3.6 14.4,3.6 14.4,3.5 14.2,3.3 14.2,3.3 14.2,3.3 14.2,3.3 14.2,3.3 14.2,3.2 14.1,3 
	14.1,3 14.1,3 14.2,3 14.2,3 14.2,3 14.3,3 14.3,3 14.3,2.8 14.3,2.7 14.3,2.7 14.3,2.7 14.4,2.7 14.4,2.7 14.4,2.7 14.5,2.7 
	14.7,2.6 14.8,2.5 14.9,2.5 14.9,2.5 15,2.5 15.1,2.5 15.3,2.4 15.3,2.4 15.3,2.4 15.3,2.3 15.3,2.3 15.3,2.2 15.3,2.2 15.3,2.2 
	15.3,2.2 15.3,2.2 15.5,2.1 15.7,2 16,1.8 16.1,1.7 16.2,1.5 16.2,1.5 16.2,1.5 16.2,1.4 16.3,1.3 16.3,1.3 16.3,1.2 "/>
<polyline class="st1" points="47.3,3.9 46.3,6 47.2,6.4 48.1,4.3 "/>
<polyline class="st1" points="43.5,10.9 41.7,14.8 42.5,15.2 44.4,11.3 "/>
<rect x="41.6" y="20" class="st1" width="0.9" height="4.9"/>
<polyline class="st1" points="41.8,32.5 38.4,35.5 39,36.2 42.4,33.2 "/>
<polyline class="st1" points="31.5,46.4 30.2,48.2 31,48.7 32.2,47 "/>
<rect x="20.6" y="56.7" class="st1" width="2.8" height="0.9"/>
<rect x="8.4" y="45.1" class="st1" width="0.9" height="5.8"/>
<polygon class="st1" points="14.9,34.3 15.8,34.4 16.1,30.7 15.2,30.6 "/>
<polyline class="st1" points="15.8,24.7 13.6,19.8 12.7,20.2 14.9,25 "/>
<path class="st2" d="M16.8,46c-0.5,0-0.7,0.7-0.1,0.7S17.4,46,16.8,46"/>
<path class="st2" d="M20.3,44.4c-0.3,0-1,0.4-0.4,0.4C20.2,44.8,20.9,44.4,20.3,44.4"/>
<path class="st2" d="M20,46.3c-0.3,0-1,0.5-0.4,0.5C19.9,46.8,20.6,46.3,20,46.3"/>
<path class="st2" d="M23,46.3c-0.4,0-0.9,0.6-0.3,0.6C23.1,46.9,23.6,46.3,23,46.3"/>
<path class="st2" d="M24.7,43.9c-0.3,0-1,0.4-0.4,0.4C24.6,44.3,25.4,43.9,24.7,43.9"/>
<path class="st2" d="M25.8,41.7c-0.4,0-1,0.5-0.4,0.5C25.8,42.2,26.5,41.7,25.8,41.7"/>
<path class="st2" d="M31,39.3c-0.2,0-1,0.4-0.6,0.4C30.6,39.6,31.4,39.3,31,39.3"/>
<path class="st2" d="M32.8,40.8c-0.4,0-0.9,0.6-0.3,0.6C32.8,41.4,33.4,40.8,32.8,40.8"/>
<path class="st2" d="M37.5,36.7c-0.4,0-1,0.5-0.3,0.5C37.5,37.3,38.1,36.7,37.5,36.7"/>
<path class="st2" d="M34.5,31.1c-0.3,0-1,0.4-0.4,0.4C34.3,31.5,35.1,31.1,34.5,31.1"/>
<path class="st2" d="M26.4,29.9c-0.3,0-1,0.5-0.4,0.5C26.4,30.4,27,29.9,26.4,29.9"/>
<path class="st2" d="M20.1,28c-0.5,0-0.7,0.6-0.1,0.6S20.8,28,20.1,28"/>
<path class="st2" d="M21.4,22.9c-0.3,0-1,0.4-0.4,0.4C21.3,23.3,22,22.9,21.4,22.9"/>
<path class="st2" d="M23,21.4c-0.4,0-1,0.5-0.3,0.5C23.1,22,23.7,21.4,23,21.4"/>
<path class="st2" d="M28.3,18.8c-0.3,0-1,0.5-0.4,0.5C28.3,19.2,29,18.8,28.3,18.8"/>
<path class="st2" d="M30,19.3c-0.4,0-0.9,0.6-0.3,0.6C30.1,19.8,30.6,19.3,30,19.3"/>
<path class="st2" d="M28.6,21.8c-0.3,0-1,0.4-0.4,0.4C28.5,22.2,29.2,21.8,28.6,21.8"/>
<path class="st2" d="M25,21.8c-0.3,0-1,0.4-0.4,0.4C24.9,22.2,25.6,21.8,25,21.8"/>
<path class="st2" d="M35,23c-0.2,0.1-0.4,0.2-0.2,0.2H35C35,23.1,35,23.1,35,23"/>
<path class="st2" d="M35.4,22.8c-0.2,0-0.3,0.1-0.4,0.2c0.1-0.1,0.3-0.1,0.4-0.1c0.3,0-0.1,0.2-0.4,0.3c0,0.1,0.2,0.2,0.4,0.2
	C35.9,23.4,36.1,22.7,35.4,22.8"/>
<path class="st2" d="M35.4,22.9c-0.1,0-0.3,0-0.4,0.1c0,0.1,0,0.1,0,0.2C35.3,23.1,35.8,22.9,35.4,22.9"/>
<text transform="matrix(1.02 0 0 1 15.2998 31.2803)" class="st3 st4 st5">南海诸岛</text>
</svg>
